<mxfile host="app.diagrams.net" modified="2023-11-04T08:05:25.545Z" agent="Mozilla/5.0 (Windows NT 10.0; Win64; x64; rv:109.0) Gecko/20100101 Firefox/115.0" etag="6EvZ8CbUq54dPx-sNJ6m" version="22.0.8" type="device">
  <diagram name="Page-1" id="5XbYkh7nah33-01qVDlc">
    <mxGraphModel dx="1910" dy="1268" grid="1" gridSize="10" guides="1" tooltips="1" connect="1" arrows="1" fold="1" page="1" pageScale="1" pageWidth="850" pageHeight="1100" math="0" shadow="0">
      <root>
        <mxCell id="0" />
        <mxCell id="1" parent="0" />
        <mxCell id="SwoyGDu4tdv3MxGLi-dW-1" value="" style="endArrow=none;html=1;rounded=0;" parent="1" edge="1">
          <mxGeometry width="50" height="50" relative="1" as="geometry">
            <mxPoint x="160" y="280" as="sourcePoint" />
            <mxPoint x="1040" y="280" as="targetPoint" />
          </mxGeometry>
        </mxCell>
        <mxCell id="SwoyGDu4tdv3MxGLi-dW-2" value="Camera Setup" style="rounded=1;whiteSpace=wrap;html=1;" parent="1" vertex="1">
          <mxGeometry x="159" y="140" width="161" height="140" as="geometry" />
        </mxCell>
        <mxCell id="SwoyGDu4tdv3MxGLi-dW-3" value="" style="endArrow=none;html=1;rounded=0;" parent="1" edge="1">
          <mxGeometry width="50" height="50" relative="1" as="geometry">
            <mxPoint x="480" y="270" as="sourcePoint" />
            <mxPoint x="480" y="290" as="targetPoint" />
          </mxGeometry>
        </mxCell>
        <mxCell id="SwoyGDu4tdv3MxGLi-dW-4" value="1L&amp;nbsp;&amp;nbsp;&amp;nbsp;&amp;nbsp;&amp;nbsp; &lt;span style=&quot;white-space: pre;&quot;&gt;&#x9;&lt;/span&gt;&lt;span style=&quot;white-space: pre;&quot;&gt;&#x9;&lt;/span&gt;&lt;span style=&quot;white-space: pre;&quot;&gt;                 &lt;/span&gt;&lt;span style=&quot;white-space: pre;&quot;&gt;&#x9;&lt;/span&gt; 2L&amp;nbsp;&amp;nbsp;&amp;nbsp;&amp;nbsp;&amp;nbsp;&amp;nbsp;&amp;nbsp;&amp;nbsp;&amp;nbsp;&amp;nbsp;&amp;nbsp;&amp;nbsp;&amp;nbsp;&amp;nbsp;&amp;nbsp;&amp;nbsp;&amp;nbsp;&amp;nbsp;&amp;nbsp;&amp;nbsp;&amp;nbsp;&amp;nbsp;&amp;nbsp;&amp;nbsp;&amp;nbsp;&amp;nbsp;&amp;nbsp;&amp;nbsp;&amp;nbsp;&amp;nbsp;&amp;nbsp;&amp;nbsp;&amp;nbsp;&amp;nbsp;&amp;nbsp;&amp;nbsp;&amp;nbsp;&amp;nbsp;&amp;nbsp;&amp;nbsp;&amp;nbsp;&amp;nbsp;&amp;nbsp;&amp;nbsp;&amp;nbsp;&amp;nbsp;&amp;nbsp;&amp;nbsp;&amp;nbsp;&amp;nbsp;&amp;nbsp;&amp;nbsp;&amp;nbsp;&amp;nbsp; 3L&amp;nbsp;&amp;nbsp;&amp;nbsp;&amp;nbsp;&amp;nbsp;&amp;nbsp;&amp;nbsp;&amp;nbsp;&amp;nbsp;&amp;nbsp;&amp;nbsp;&amp;nbsp;&amp;nbsp;&amp;nbsp;&amp;nbsp;&amp;nbsp;&amp;nbsp;&amp;nbsp;&amp;nbsp;&amp;nbsp;&amp;nbsp;&amp;nbsp;&amp;nbsp;&amp;nbsp;&amp;nbsp;&amp;nbsp;&amp;nbsp;&amp;nbsp;&amp;nbsp;&amp;nbsp;&amp;nbsp;&amp;nbsp;&amp;nbsp;&amp;nbsp;&amp;nbsp;&amp;nbsp;&amp;nbsp;&amp;nbsp;&amp;nbsp;&amp;nbsp;&amp;nbsp;&amp;nbsp;&amp;nbsp;&amp;nbsp;&amp;nbsp;&amp;nbsp;&amp;nbsp;&amp;nbsp;&amp;nbsp;&amp;nbsp;&amp;nbsp;&amp;nbsp;&amp;nbsp;&amp;nbsp;&amp;nbsp;&amp;nbsp; 4L" style="text;html=1;strokeColor=none;fillColor=none;align=left;verticalAlign=middle;whiteSpace=wrap;rounded=0;" parent="1" vertex="1">
          <mxGeometry x="470" y="290" width="600" height="30" as="geometry" />
        </mxCell>
        <mxCell id="SwoyGDu4tdv3MxGLi-dW-7" value="" style="endArrow=none;html=1;rounded=0;" parent="1" edge="1">
          <mxGeometry width="50" height="50" relative="1" as="geometry">
            <mxPoint x="840" y="270" as="sourcePoint" />
            <mxPoint x="840" y="290" as="targetPoint" />
          </mxGeometry>
        </mxCell>
        <mxCell id="SwoyGDu4tdv3MxGLi-dW-9" value="" style="endArrow=none;html=1;rounded=0;" parent="1" edge="1">
          <mxGeometry width="50" height="50" relative="1" as="geometry">
            <mxPoint x="640" y="270" as="sourcePoint" />
            <mxPoint x="640" y="290" as="targetPoint" />
          </mxGeometry>
        </mxCell>
        <mxCell id="SwoyGDu4tdv3MxGLi-dW-11" value="" style="rounded=0;whiteSpace=wrap;html=1;rotation=-45;" parent="1" vertex="1">
          <mxGeometry x="1050" y="40" width="30" height="40" as="geometry" />
        </mxCell>
        <mxCell id="SwoyGDu4tdv3MxGLi-dW-12" value="" style="triangle;whiteSpace=wrap;html=1;rotation=-50;" parent="1" vertex="1">
          <mxGeometry x="1020" y="60" width="40" height="50" as="geometry" />
        </mxCell>
        <mxCell id="SwoyGDu4tdv3MxGLi-dW-13" value="Additional Lighting" style="text;html=1;strokeColor=none;fillColor=none;align=center;verticalAlign=middle;whiteSpace=wrap;rounded=0;" parent="1" vertex="1">
          <mxGeometry x="1057" y="83" width="60" height="30" as="geometry" />
        </mxCell>
        <mxCell id="HZAyOTzysoY2eYurv3RK-1" value="ROS2 Vehicle" style="rounded=1;whiteSpace=wrap;html=1;" vertex="1" parent="1">
          <mxGeometry x="230" y="230" width="90" height="50" as="geometry" />
        </mxCell>
        <mxCell id="HZAyOTzysoY2eYurv3RK-2" value="Potted Plant" style="rounded=1;whiteSpace=wrap;html=1;" vertex="1" parent="1">
          <mxGeometry x="670" y="220" width="60" height="60" as="geometry" />
        </mxCell>
        <mxCell id="HZAyOTzysoY2eYurv3RK-3" value="" style="endArrow=none;html=1;rounded=0;" edge="1" parent="1">
          <mxGeometry width="50" height="50" relative="1" as="geometry">
            <mxPoint x="1040" y="270" as="sourcePoint" />
            <mxPoint x="1040" y="290" as="targetPoint" />
          </mxGeometry>
        </mxCell>
        <mxCell id="HZAyOTzysoY2eYurv3RK-7" value="" style="rounded=0;whiteSpace=wrap;html=1;rotation=-146;" vertex="1" parent="1">
          <mxGeometry x="470" y="40" width="30" height="40" as="geometry" />
        </mxCell>
        <mxCell id="HZAyOTzysoY2eYurv3RK-8" value="" style="triangle;whiteSpace=wrap;html=1;rotation=-145;" vertex="1" parent="1">
          <mxGeometry x="494" y="56" width="40" height="50" as="geometry" />
        </mxCell>
        <mxCell id="HZAyOTzysoY2eYurv3RK-9" value="Additional Lighting" style="text;html=1;strokeColor=none;fillColor=none;align=center;verticalAlign=middle;whiteSpace=wrap;rounded=0;" vertex="1" parent="1">
          <mxGeometry x="433" y="90" width="60" height="30" as="geometry" />
        </mxCell>
        <mxCell id="HZAyOTzysoY2eYurv3RK-10" value="Before Sending Object Location" style="text;html=1;strokeColor=none;fillColor=none;align=center;verticalAlign=middle;whiteSpace=wrap;rounded=0;" vertex="1" parent="1">
          <mxGeometry x="170" y="45" width="100" height="30" as="geometry" />
        </mxCell>
        <mxCell id="HZAyOTzysoY2eYurv3RK-11" value="" style="endArrow=none;html=1;rounded=0;" edge="1" parent="1">
          <mxGeometry width="50" height="50" relative="1" as="geometry">
            <mxPoint x="160" y="598" as="sourcePoint" />
            <mxPoint x="1040" y="598" as="targetPoint" />
          </mxGeometry>
        </mxCell>
        <mxCell id="HZAyOTzysoY2eYurv3RK-12" value="Camera Setup" style="rounded=1;whiteSpace=wrap;html=1;" vertex="1" parent="1">
          <mxGeometry x="159" y="458" width="161" height="140" as="geometry" />
        </mxCell>
        <mxCell id="HZAyOTzysoY2eYurv3RK-13" value="" style="endArrow=none;html=1;rounded=0;" edge="1" parent="1">
          <mxGeometry width="50" height="50" relative="1" as="geometry">
            <mxPoint x="480" y="588" as="sourcePoint" />
            <mxPoint x="480" y="608" as="targetPoint" />
          </mxGeometry>
        </mxCell>
        <mxCell id="HZAyOTzysoY2eYurv3RK-14" value="1L&amp;nbsp;&amp;nbsp;&amp;nbsp;&amp;nbsp;&amp;nbsp; &lt;span style=&quot;white-space: pre;&quot;&gt;&#x9;&lt;/span&gt;&lt;span style=&quot;white-space: pre;&quot;&gt;&#x9;&lt;/span&gt;&lt;span style=&quot;white-space: pre;&quot;&gt;                 &lt;/span&gt;&lt;span style=&quot;white-space: pre;&quot;&gt;&#x9;&lt;/span&gt; 2L&amp;nbsp;&amp;nbsp;&amp;nbsp;&amp;nbsp;&amp;nbsp;&amp;nbsp;&amp;nbsp;&amp;nbsp;&amp;nbsp;&amp;nbsp;&amp;nbsp;&amp;nbsp;&amp;nbsp;&amp;nbsp;&amp;nbsp;&amp;nbsp;&amp;nbsp;&amp;nbsp;&amp;nbsp;&amp;nbsp;&amp;nbsp;&amp;nbsp;&amp;nbsp;&amp;nbsp;&amp;nbsp;&amp;nbsp;&amp;nbsp;&amp;nbsp;&amp;nbsp;&amp;nbsp;&amp;nbsp;&amp;nbsp;&amp;nbsp;&amp;nbsp;&amp;nbsp;&amp;nbsp;&amp;nbsp;&amp;nbsp;&amp;nbsp;&amp;nbsp;&amp;nbsp;&amp;nbsp;&amp;nbsp;&amp;nbsp;&amp;nbsp;&amp;nbsp;&amp;nbsp;&amp;nbsp;&amp;nbsp;&amp;nbsp;&amp;nbsp;&amp;nbsp;&amp;nbsp;&amp;nbsp; 3L&amp;nbsp;&amp;nbsp;&amp;nbsp;&amp;nbsp;&amp;nbsp;&amp;nbsp;&amp;nbsp;&amp;nbsp;&amp;nbsp;&amp;nbsp;&amp;nbsp;&amp;nbsp;&amp;nbsp;&amp;nbsp;&amp;nbsp;&amp;nbsp;&amp;nbsp;&amp;nbsp;&amp;nbsp;&amp;nbsp;&amp;nbsp;&amp;nbsp;&amp;nbsp;&amp;nbsp;&amp;nbsp;&amp;nbsp;&amp;nbsp;&amp;nbsp;&amp;nbsp;&amp;nbsp;&amp;nbsp;&amp;nbsp;&amp;nbsp;&amp;nbsp;&amp;nbsp;&amp;nbsp;&amp;nbsp;&amp;nbsp;&amp;nbsp;&amp;nbsp;&amp;nbsp;&amp;nbsp;&amp;nbsp;&amp;nbsp;&amp;nbsp;&amp;nbsp;&amp;nbsp;&amp;nbsp;&amp;nbsp;&amp;nbsp;&amp;nbsp;&amp;nbsp;&amp;nbsp;&amp;nbsp;&amp;nbsp;&amp;nbsp; 4L" style="text;html=1;strokeColor=none;fillColor=none;align=left;verticalAlign=middle;whiteSpace=wrap;rounded=0;" vertex="1" parent="1">
          <mxGeometry x="470" y="608" width="600" height="30" as="geometry" />
        </mxCell>
        <mxCell id="HZAyOTzysoY2eYurv3RK-15" value="" style="endArrow=none;html=1;rounded=0;" edge="1" parent="1">
          <mxGeometry width="50" height="50" relative="1" as="geometry">
            <mxPoint x="840" y="588" as="sourcePoint" />
            <mxPoint x="840" y="608" as="targetPoint" />
          </mxGeometry>
        </mxCell>
        <mxCell id="HZAyOTzysoY2eYurv3RK-16" value="" style="endArrow=none;html=1;rounded=0;" edge="1" parent="1">
          <mxGeometry width="50" height="50" relative="1" as="geometry">
            <mxPoint x="640" y="588" as="sourcePoint" />
            <mxPoint x="640" y="608" as="targetPoint" />
          </mxGeometry>
        </mxCell>
        <mxCell id="HZAyOTzysoY2eYurv3RK-17" value="" style="rounded=0;whiteSpace=wrap;html=1;rotation=-45;" vertex="1" parent="1">
          <mxGeometry x="1050" y="358" width="30" height="40" as="geometry" />
        </mxCell>
        <mxCell id="HZAyOTzysoY2eYurv3RK-18" value="" style="triangle;whiteSpace=wrap;html=1;rotation=-50;" vertex="1" parent="1">
          <mxGeometry x="1020" y="378" width="40" height="50" as="geometry" />
        </mxCell>
        <mxCell id="HZAyOTzysoY2eYurv3RK-19" value="Additional Lighting" style="text;html=1;strokeColor=none;fillColor=none;align=center;verticalAlign=middle;whiteSpace=wrap;rounded=0;" vertex="1" parent="1">
          <mxGeometry x="1057" y="401" width="60" height="30" as="geometry" />
        </mxCell>
        <mxCell id="HZAyOTzysoY2eYurv3RK-21" value="Potted Plant" style="rounded=1;whiteSpace=wrap;html=1;" vertex="1" parent="1">
          <mxGeometry x="670" y="538" width="60" height="60" as="geometry" />
        </mxCell>
        <mxCell id="HZAyOTzysoY2eYurv3RK-22" value="" style="endArrow=none;html=1;rounded=0;" edge="1" parent="1">
          <mxGeometry width="50" height="50" relative="1" as="geometry">
            <mxPoint x="1040" y="588" as="sourcePoint" />
            <mxPoint x="1040" y="608" as="targetPoint" />
          </mxGeometry>
        </mxCell>
        <mxCell id="HZAyOTzysoY2eYurv3RK-23" value="" style="rounded=0;whiteSpace=wrap;html=1;rotation=-146;" vertex="1" parent="1">
          <mxGeometry x="470" y="358" width="30" height="40" as="geometry" />
        </mxCell>
        <mxCell id="HZAyOTzysoY2eYurv3RK-24" value="" style="triangle;whiteSpace=wrap;html=1;rotation=-145;" vertex="1" parent="1">
          <mxGeometry x="494" y="374" width="40" height="50" as="geometry" />
        </mxCell>
        <mxCell id="HZAyOTzysoY2eYurv3RK-25" value="Additional Lighting" style="text;html=1;strokeColor=none;fillColor=none;align=center;verticalAlign=middle;whiteSpace=wrap;rounded=0;" vertex="1" parent="1">
          <mxGeometry x="433" y="408" width="60" height="30" as="geometry" />
        </mxCell>
        <mxCell id="HZAyOTzysoY2eYurv3RK-26" value="After Sending Object Location" style="text;html=1;strokeColor=none;fillColor=none;align=center;verticalAlign=middle;whiteSpace=wrap;rounded=0;" vertex="1" parent="1">
          <mxGeometry x="170" y="363" width="100" height="30" as="geometry" />
        </mxCell>
        <mxCell id="HZAyOTzysoY2eYurv3RK-20" value="ROS2 Vehicle" style="rounded=1;whiteSpace=wrap;html=1;" vertex="1" parent="1">
          <mxGeometry x="606" y="548" width="90" height="50" as="geometry" />
        </mxCell>
      </root>
    </mxGraphModel>
  </diagram>
</mxfile>
